<svg id="Ebene_1" data-name="Ebene 1" xmlns="http://www.w3.org/2000/svg" viewBox="0 0 411.93 411.93"><defs><style>.cls-1{fill:#fff;}.cls-2{fill:none;stroke:#1a3a6b;stroke-linecap:round;stroke-width:16px;}</style></defs><path class="cls-1" d="M480,686c113.75,0,206-92.22,206-206S593.75,274,480,274,274,366.25,274,480s92.22,206,206,206Z" transform="translate(-274.03 -274.03)"/><path class="cls-2" d="M453.16,337.06c-.18,21.69,54.17,18.24,54.17,36.32s-54.49,16.35-54.17,34.42c.29,16.64,53.61,27.61,76.35,25.47,22-2.06,62.77-63.85,113.5-16.52,55.43,51.72-3.56,135-55.72,155.42-38.33,15-95-28.24-94.24,21.52.78,49,92.72,30.72,87.36-13.08-2.31-18.94-37.52-86-99.74-86.75m26.17-156.8c.18,21.69-54.17,18.24-54.17,36.32s54.49,16.35,54.17,34.42c-.29,16.64-53.6,27.61-76.35,25.47-22-2.06-62.77-63.85-113.5-16.52-55.43,51.72,3.56,135,55.72,155.42,38.33,15,95-28.24,94.24,21.52-.78,49-92.72,30.72-87.36-13.08,2.32-18.94,37.52-86,99.74-86.75" transform="translate(-274.03 -274.03)"/></svg>